<svg xmlns="http://www.w3.org/2000/svg" viewBox="0 0 26.461 26.209">
  <defs>
    <style>
      .cls-1 {
        opacity: 0.9;
      }

      .cls-2 {
        fill: #fff;
      }
    </style>
  </defs>
  <g id="Group_262" data-name="Group 262" class="cls-1" transform="translate(0.002 -0.018)">
    <path id="Path_2230" data-name="Path 2230" class="cls-2" d="M14.357,26.227a13.841,13.841,0,0,1-1.582-.122,17.762,17.762,0,0,1-6.388-2.494A15.151,15.151,0,0,1,1.824,19.9C-.67,16.493-.609,11.566,2.007,7.55A15.882,15.882,0,0,1,11.071.432h0A11.027,11.027,0,0,1,21.718,2.988a15.994,15.994,0,0,1,4.563,13.323A12.446,12.446,0,0,1,14.357,26.227ZM14.235,6.09a5.124,5.124,0,0,0-1.643.243h0c-1.947.487-3.954,2.19-5.536,4.563-1.156,1.764-1.338,4.137-.365,5.414a8.359,8.359,0,0,0,2.677,2.008,12.922,12.922,0,0,0,4.259,1.764,6.3,6.3,0,0,0,6.631-4.928A9.974,9.974,0,0,0,17.52,7.429,4.452,4.452,0,0,0,14.235,6.09ZM11.862,3.353Z" transform="translate(0 0)"/>
  </g>
</svg>
